<?xml version="1.0" encoding="UTF-8" standalone="no"?>
<!DOCTYPE svg PUBLIC "-//W3C//DTD SVG 1.1//EN"
 "http://www.w3.org/Graphics/SVG/1.1/DTD/svg11.dtd">
<!-- Generated by graphviz version 12.1.1 (20240910.0053)
 -->
<!-- Title: INFRA Pages: 1 -->
<svg width="464pt" height="296pt"
 viewBox="0.00 0.00 463.53 296.00" xmlns="http://www.w3.org/2000/svg" xmlns:xlink="http://www.w3.org/1999/xlink">
<g id="graph0" class="graph" transform="scale(1 1) rotate(0) translate(4 292)">
<title>INFRA</title>
<polygon fill="white" stroke="none" points="-4,4 -4,-292 459.53,-292 459.53,4 -4,4"/>
<!-- mongodb -->
<g id="node1" class="node">
<title>mongodb</title>
<path fill="#ffcfb3" stroke="black" stroke-width="2" d="M220.15,-65.45C220.15,-69.07 189.19,-72 151.08,-72 112.96,-72 82,-69.07 82,-65.45 82,-65.45 82,-6.55 82,-6.55 82,-2.93 112.96,0 151.08,0 189.19,0 220.15,-2.93 220.15,-6.55 220.15,-6.55 220.15,-65.45 220.15,-65.45"/>
<path fill="none" stroke="black" stroke-width="2" d="M220.15,-65.45C220.15,-61.84 189.19,-58.91 151.08,-58.91 112.96,-58.91 82,-61.84 82,-65.45"/>
<text text-anchor="middle" x="151.08" y="-40.2" font-family="Arial" font-size="14.00">mongodb</text>
<text text-anchor="middle" x="151.08" y="-23.4" font-family="Arial" font-size="14.00">(Docker::Container)</text>
</g>
<!-- loan&#45;calculator&#45;api -->
<g id="node2" class="node">
<title>loan&#45;calculator&#45;api</title>
<path fill="#b7e0ff" stroke="black" stroke-width="2" d="M126.15,-180C126.15,-180 12,-180 12,-180 6,-180 0,-174 0,-168 0,-168 0,-120 0,-120 0,-114 6,-108 12,-108 12,-108 126.15,-108 126.15,-108 132.15,-108 138.15,-114 138.15,-120 138.15,-120 138.15,-168 138.15,-168 138.15,-174 132.15,-180 126.15,-180"/>
<text text-anchor="middle" x="69.08" y="-148.2" font-family="Arial" font-size="14.00">loan&#45;calculator&#45;api</text>
<text text-anchor="middle" x="69.08" y="-131.4" font-family="Arial" font-size="14.00">(Docker::Container)</text>
</g>
<!-- loan&#45;calculator&#45;api&#45;&gt;mongodb -->
<g id="edge1" class="edge">
<title>loan&#45;calculator&#45;api&#45;&gt;mongodb</title>
<path fill="none" stroke="black" d="M96.38,-107.7C102.95,-99.21 110.05,-90.03 116.89,-81.19"/>
<polygon fill="black" stroke="black" points="119.61,-83.39 122.96,-73.34 114.08,-79.11 119.61,-83.39"/>
</g>
<!-- mongo&#45;data -->
<g id="node3" class="node">
<title>mongo&#45;data</title>
<path fill="#fff5cd" stroke="black" stroke-width="2" d="M455.53,-281.45C455.53,-285.07 427.54,-288 393.08,-288 358.61,-288 330.62,-285.07 330.62,-281.45 330.62,-281.45 330.62,-222.55 330.62,-222.55 330.62,-218.93 358.61,-216 393.08,-216 427.54,-216 455.53,-218.93 455.53,-222.55 455.53,-222.55 455.53,-281.45 455.53,-281.45"/>
<path fill="none" stroke="black" stroke-width="2" d="M455.53,-281.45C455.53,-277.84 427.54,-274.91 393.08,-274.91 358.61,-274.91 330.62,-277.84 330.62,-281.45"/>
<text text-anchor="middle" x="393.08" y="-256.2" font-family="Arial" font-size="14.00">mongo&#45;data</text>
<text text-anchor="middle" x="393.08" y="-239.4" font-family="Arial" font-size="14.00">(Docker::Volume)</text>
</g>
<!-- LoanCacheDb -->
<g id="node4" class="node">
<title>LoanCacheDb</title>
<path fill="#ffcfb3" stroke="black" stroke-width="2" d="M311.72,-173.45C311.72,-177.07 276.92,-180 234.08,-180 191.23,-180 156.43,-177.07 156.43,-173.45 156.43,-173.45 156.43,-114.55 156.43,-114.55 156.43,-110.93 191.23,-108 234.08,-108 276.92,-108 311.72,-110.93 311.72,-114.55 311.72,-114.55 311.72,-173.45 311.72,-173.45"/>
<path fill="none" stroke="black" stroke-width="2" d="M311.72,-173.45C311.72,-169.84 276.92,-166.91 234.08,-166.91 191.23,-166.91 156.43,-169.84 156.43,-173.45"/>
<text text-anchor="middle" x="234.08" y="-148.2" font-family="Arial" font-size="14.00">LoanCacheDb</text>
<text text-anchor="middle" x="234.08" y="-131.4" font-family="Arial" font-size="14.00">(MongoDB::Database)</text>
</g>
<!-- LoanCacheDb&#45;&gt;mongodb -->
<g id="edge2" class="edge">
<title>LoanCacheDb&#45;&gt;mongodb</title>
<path fill="none" stroke="black" d="M206.44,-107.7C199.79,-99.21 192.6,-90.03 185.68,-81.19"/>
<polygon fill="black" stroke="black" points="188.45,-79.05 179.53,-73.33 182.94,-83.37 188.45,-79.05"/>
</g>
<!-- LoanCalculations -->
<g id="node5" class="node">
<title>LoanCalculations</title>
<path fill="#ffcfb3" stroke="black" stroke-width="2" d="M312.49,-281.45C312.49,-285.07 277.34,-288 234.08,-288 190.81,-288 155.66,-285.07 155.66,-281.45 155.66,-281.45 155.66,-222.55 155.66,-222.55 155.66,-218.93 190.81,-216 234.08,-216 277.34,-216 312.49,-218.93 312.49,-222.55 312.49,-222.55 312.49,-281.45 312.49,-281.45"/>
<path fill="none" stroke="black" stroke-width="2" d="M312.49,-281.45C312.49,-277.84 277.34,-274.91 234.08,-274.91 190.81,-274.91 155.66,-277.84 155.66,-281.45"/>
<text text-anchor="middle" x="234.08" y="-256.2" font-family="Arial" font-size="14.00">LoanCalculations</text>
<text text-anchor="middle" x="234.08" y="-239.4" font-family="Arial" font-size="14.00">(MongoDB::Collection)</text>
</g>
<!-- LoanCalculations&#45;&gt;LoanCacheDb -->
<g id="edge3" class="edge">
<title>LoanCalculations&#45;&gt;LoanCacheDb</title>
<path fill="none" stroke="black" d="M234.08,-215.7C234.08,-207.93 234.08,-199.57 234.08,-191.43"/>
<polygon fill="black" stroke="black" points="237.58,-191.66 234.08,-181.66 230.58,-191.66 237.58,-191.66"/>
</g>
</g>
</svg>
